<svg xmlns="http://www.w3.org/2000/svg" xmlns:xlink="http://www.w3.org/1999/xlink" width="500" zoomAndPan="magnify" viewBox="0 0 375 374.999991" height="500" preserveAspectRatio="xMidYMid meet" version="1.0"><path fill="#082313" d="M 140.894531 170.863281 L 151.917969 170.863281 C 154.992188 170.863281 157.46875 171.613281 159.351562 173.117188 C 161.234375 174.605469 162.578125 176.566406 162.578125 179.003906 C 162.578125 180.609375 162.542969 183.683594 161.609375 185.128906 C 160.695312 186.5625 159.304688 187.632812 157.4375 188.339844 C 155.570312 189.050781 153.542969 189.417969 152.21875 189.445312 L 147.472656 189.53125 L 147.472656 198.78125 L 140.894531 198.78125 Z M 147.367188 176.816406 L 147.367188 184.046875 L 151.394531 184.046875 C 152.597656 184.046875 153.625 183.683594 154.472656 182.960938 C 155.339844 182.238281 155.773438 181.382812 155.773438 180.390625 C 155.773438 179.253906 155.289062 178.375 154.320312 177.753906 C 153.355469 177.128906 152.351562 176.816406 150.566406 176.816406 Z M 166.355469 170.863281 L 184.226562 170.863281 L 184.226562 176.390625 L 172.890625 176.390625 L 172.890625 181.460938 L 183.890625 181.460938 L 183.890625 187.46875 L 172.890625 187.46875 L 172.890625 192.566406 L 184.226562 192.566406 L 184.226562 198.78125 L 166.355469 198.78125 Z M 190.371094 170.863281 L 201.824219 170.863281 C 204.824219 170.863281 206.703125 171.601562 208.441406 173.074219 C 210.1875 174.550781 210.789062 176.890625 211.066406 179.046875 C 211.261719 180.558594 211.148438 182.015625 210.34375 183.5625 C 209.550781 185.105469 207.164062 186.789062 204.945312 187.308594 L 213.6875 198.78125 L 205.761719 198.78125 L 197.5625 187.667969 L 196.832031 187.667969 L 196.832031 198.78125 L 190.371094 198.78125 Z M 196.878906 176.296875 L 196.878906 183.507812 L 199.210938 183.507812 C 202.574219 183.507812 204.257812 181.828125 204.257812 179.261719 C 204.257812 176.398438 201.191406 176.3125 199.300781 176.296875 Z M 213.96875 170.863281 L 235.394531 170.863281 L 235.394531 176.90625 L 228.089844 176.90625 L 228.089844 198.78125 L 221.226562 198.78125 L 221.226562 176.90625 L 213.96875 176.90625 Z M 243.449219 170.863281 L 250.296875 170.863281 L 259.734375 198.78125 L 252.804688 198.78125 L 251.003906 193.746094 L 242.535156 193.746094 L 240.410156 198.78125 L 233.941406 198.78125 Z M 246.789062 179.84375 L 243.714844 188.480469 L 249.417969 188.480469 Z M 266.496094 170.863281 L 272.898438 170.863281 L 278.132812 186.359375 L 283.828125 170.863281 L 290.179688 170.863281 L 293.855469 198.78125 L 287.558594 198.78125 L 285.695312 182.953125 L 279.398438 198.78125 L 276.804688 198.78125 L 270.875 182.664062 L 268.152344 198.78125 L 262.324219 198.78125 Z M 298.136719 170.863281 L 304.761719 170.863281 L 304.761719 198.78125 L 298.136719 198.78125 Z M 329.644531 171.015625 L 335.691406 171.015625 L 335.691406 198.78125 L 328.992188 198.78125 L 317.324219 182.242188 L 317.324219 198.78125 L 310.789062 198.78125 L 310.789062 171.015625 L 317.03125 171.015625 L 329.644531 188.199219 Z M 349.289062 170.863281 L 356.132812 170.863281 L 365.570312 198.78125 L 358.640625 198.78125 L 356.839844 193.746094 L 348.375 193.746094 L 346.246094 198.78125 L 339.78125 198.78125 Z M 352.628906 179.84375 L 349.550781 188.480469 L 355.253906 188.480469 Z M 352.628906 179.84375 " fill-opacity="1" fill-rule="nonzero"/><path fill="#006cb8" d="M 13.644531 218.257812 C 13.644531 218.257812 35.738281 183.101562 39.339844 177.273438 C 42.9375 171.445312 46.039062 170.898438 55.984375 170.898438 L 77.902344 170.898438 C 76.609375 171.980469 74.398438 174.246094 72.746094 176.90625 L 50.453125 212.792969 C 48.222656 216.800781 43.511719 218.257812 37.855469 218.257812 Z M 13.644531 218.257812 " fill-opacity="1" fill-rule="nonzero"/><path fill="#acc42a" d="M 100.917969 170.898438 C 90.972656 170.898438 87.855469 171.445312 84.066406 177.273438 C 79.40625 184.449219 74.75 191.628906 70.097656 198.804688 L 95.585938 198.804688 C 100.035156 198.804688 104.367188 196.851562 106.234375 193.621094 L 121.292969 170.898438 Z M 100.917969 170.898438 " fill-opacity="1" fill-rule="nonzero"/><path fill="#ed1b2f" d="M 90.472656 136.351562 C 100.417969 136.351562 103.535156 136.898438 107.324219 142.730469 C 111.984375 149.90625 116.640625 157.082031 121.292969 164.261719 L 95.804688 164.261719 C 91.355469 164.261719 87.023438 162.308594 85.15625 159.074219 L 70.097656 136.351562 Z M 90.472656 136.351562 " fill-opacity="1" fill-rule="nonzero"/></svg>